<?xml version="1.0" encoding="UTF-8"?>
<svg id="Layer_2" data-name="Layer 2" xmlns="http://www.w3.org/2000/svg" viewBox="0 0 597.95 123.58">
  <g id="Layer_2-2" data-name="Layer 2">
    <g>
      <g>
        <g>
          <path d="m54.81,72.05h38.5c-.67,5.57-2.09,10.46-4.29,14.66-3.04,5.83-7.43,10.23-13.14,13.22-5.72,2.99-12.53,4.49-20.43,4.49s-14.37-1.82-20.35-5.45c-5.98-3.63-10.74-8.65-14.26-15.07-3.53-6.41-5.29-13.83-5.29-22.28s1.74-15.71,5.21-22.12c3.47-6.41,8.33-11.43,14.58-15.06,6.25-3.63,13.44-5.45,21.56-5.45,6.84,0,13.14,1.36,18.91,4.09s10.42,6.65,13.94,11.78l10.42-10.42c-5.02-6.41-11.27-11.32-18.75-14.74-7.48-3.42-15.65-5.13-24.52-5.13-8.12,0-15.63,1.44-22.52,4.33-6.89,2.88-12.9,6.95-18.03,12.18-5.13,5.24-9.14,11.3-12.02,18.19S0,53.61,0,61.63s1.44,15.49,4.33,22.44c2.88,6.95,6.86,13.04,11.94,18.27,5.07,5.24,11,9.32,17.79,12.26,6.78,2.94,14.02,4.41,21.72,4.41,10.47,0,19.74-2.19,27.81-6.57,8.07-4.38,14.37-10.92,18.91-19.63,4.54-8.71,6.81-19.53,6.81-32.45v-2.24h-54.49v13.94Z" fill="#160844"/>
          <polygon points="144.4 6.18 129.33 6.18 129.33 117.4 139.59 117.4 144.4 117.4 199.21 117.4 199.21 103.62 144.4 103.62 144.4 6.18" fill="#160844"/>
          <path d="m381.73,65.07c5.23-2.62,9.27-6.28,12.1-10.98,2.83-4.7,4.25-10.2,4.25-16.51s-1.42-11.48-4.25-16.19c-2.83-4.7-6.87-8.41-12.1-11.14-5.24-2.72-11.38-4.09-18.43-4.09h-40.87v111.23h15.07v-48.4h9.82l39.22,48.4h19.07l-39.95-48.46c6.07-.26,11.43-1.55,16.07-3.87Zm-44.23-45.76h25.32c6.41,0,11.35,1.76,14.82,5.29,3.47,3.53,5.21,7.96,5.21,13.3,0,5.66-1.74,10.15-5.21,13.46-3.47,3.31-8.47,4.97-14.98,4.97h-25.16V19.32Z" fill="#160844"/>
          <rect x="422.16" y="6.18" width="15.07" height="111.23" fill="#160844"/>
          <path d="m540.76,117.4h16.35L511.75,6.18h-10.9l-45.68,111.23h16.19l10.07-25.16h49.29l10.03,25.16Zm-54.06-38.3l19.44-48.55,19.35,48.55h-38.79Z" fill="#160844"/>
        </g>
        <path d="m252.03,123.58c-15.91,0-30.99-9.32-37.88-23.58-3.97-8.22-4.16-16.26-3.42-22.61-13.11-7.01-22.24-16.74-25.42-27.52-2.84-9.64-1.35-21.25,3.87-30.28,5.89-10.19,16.81-17.55,28.5-19.22,16.25-2.32,29.07,7.06,37.64,14.44,5.95-2.42,12.19-3.62,18.52-3.22,9.89.62,17.7,4.05,23.21,10.22,5.41,6.05,7.93,14.02,7.51,23.68-.53,11.87-6.52,20.93-11.44,26.44,1.96,9.57,1.42,19.26-3.2,28.25-5.73,11.16-19.18,22.72-36.32,23.38-.52.02-1.04.03-1.56.03Zm-25.64-39.73c.09,2.98.67,6.09,2.17,9.19,4.32,8.94,14.36,14.89,24.41,14.52,10.68-.41,19.1-7.67,22.7-14.69,1.57-3.06,2.35-6.39,2.48-9.87-16.07,7.26-36.37,5.59-51.76.85Zm2.66-15.95c.63.21,1.28.42,1.92.62,16.9,5.24,33.66,4.44,43.93-1.89-4.66-11.83-13.57-23.69-22-32.28-10.38,7.35-19.63,19.83-23.85,33.54Zm-6.35-51.89c-.91,0-1.82.06-2.75.2-6.94.99-13.42,5.36-16.91,11.4-3.72,6.42-3.6,13.58-2.37,17.75,1.64,5.57,6.65,11.11,13.83,15.68,4.92-14.18,14.4-28.05,26.2-37.49-5.73-4.37-11.59-7.53-17.99-7.53Zm45.85,11.7c6.39,7.17,12.96,16.07,17.85,25.7,1.17-2.55,2.02-5.45,2.16-8.63.09-1.99.36-8.05-3.45-12.32-3.92-4.39-10.21-4.78-12.27-4.91-1.41-.09-2.84-.03-4.28.15Z" fill="#6e62e5"/>
      </g>
      <g>
        <path d="m573.14,5.37l-12.7,30.92h4.5l2.8-7h13.7l2.79,7h4.54l-12.61-30.92h-3.03Zm-3.93,20.27l5.4-13.5,5.38,13.5h-10.78Z" fill="#6e62e5"/>
        <rect x="593.77" y="5.37" width="4.19" height="30.92" fill="#6e62e5"/>
      </g>
    </g>
  </g>
</svg>